<svg width="295" height="83" viewBox="0 0 295 83" fill="none" xmlns="http://www.w3.org/2000/svg">
<g clip-path="url(#clip0_20_1866)">
<path fill-rule="evenodd" clip-rule="evenodd" d="M0 62.215V82.7647H1.94107V72.4311L2.43437 72.9867L12.3113 82.8181H15.0567L3.91431 71.9822L13.9307 62.2685H11.5392L2.73465 71.0205L2.02686 71.7471V62.2685L0 62.215ZM15.1747 72.5165C15.156 74.046 15.399 75.5674 15.8932 77.0155C16.3169 78.2385 16.9927 79.3596 17.8772 80.3068C18.7055 81.1829 19.7156 81.8685 20.837 82.3158C23.2001 83.2282 25.82 83.2282 28.1831 82.3158C29.3091 81.8714 30.3233 81.1855 31.1537 80.3068C32.0381 79.3596 32.7139 78.2385 33.1376 77.0155C33.6318 75.5674 33.8748 74.046 33.8561 72.5165C33.8548 71.4377 33.7325 70.3624 33.4915 69.3107C33.2724 68.3067 32.9113 67.3389 32.4191 66.4361C31.942 65.5575 31.3141 64.769 30.5638 64.1065C29.7981 63.4294 28.9101 62.9035 27.9471 62.557C25.7477 61.8022 23.3582 61.8022 21.1588 62.557C20.1981 62.9084 19.311 63.4337 18.5421 64.1065C17.7975 64.7744 17.1704 65.5618 16.6868 66.4361C16.1988 67.3408 15.838 68.308 15.6144 69.3107C15.3683 70.3616 15.2459 71.4374 15.2497 72.5165H15.1747ZM17.3195 72.5165C17.3053 71.4096 17.4424 70.306 17.727 69.2359C17.9456 68.3498 18.3079 67.5052 18.7994 66.7353C19.2399 66.067 19.7911 65.478 20.4295 64.9935C21.0243 64.5324 21.6909 64.1714 22.4028 63.9248C23.0968 63.7071 23.82 63.5955 24.5476 63.5936C25.2751 63.5972 25.998 63.7089 26.6924 63.9248C27.4032 64.1738 28.0694 64.5346 28.6657 64.9935C29.3032 65.4756 29.8513 66.0651 30.285 66.7353C30.7764 67.5053 31.1386 68.3499 31.3574 69.2359C31.9008 71.3931 31.9008 73.6507 31.3574 75.8079C31.134 76.6857 30.772 77.5226 30.285 78.2871C29.8507 78.9479 29.3025 79.5267 28.6657 79.9969C28.0705 80.4418 27.403 80.7816 26.6924 81.0014C25.9992 81.2226 25.2755 81.3344 24.5476 81.3327C23.8195 81.3361 23.0956 81.2243 22.4028 81.0014C21.6912 80.784 21.0233 80.444 20.4295 79.9969C19.7919 79.5242 19.2405 78.9459 18.7994 78.2871C18.3124 77.5226 17.9505 76.6857 17.727 75.8079C17.4424 74.7342 17.3053 73.627 17.3195 72.5165ZM38.4783 62.215V82.7647H40.4193V66.6498L40.3014 64.2668H40.3871L41.4596 66.4682L51.358 82.7647H53.8674V62.215H51.9156V78.3299L51.98 80.7129H51.9156L51.0041 78.8321L40.9555 62.215H38.4783ZM58.2536 82.0487C59.0162 82.3515 59.8063 82.5805 60.6129 82.7326C61.4191 82.8834 62.2377 82.9585 63.058 82.957C64.1237 82.9778 65.1854 82.8225 66.2002 82.4975C66.9947 82.2498 67.7263 81.8343 68.345 81.2793C68.8716 80.7978 69.2853 80.2068 69.5569 79.5481C69.8139 78.9172 69.9416 78.2413 69.9322 77.5605C69.9524 76.8311 69.8285 76.1049 69.5676 75.4232C69.3226 74.8284 68.9576 74.29 68.4952 73.8417C68.0075 73.3539 67.4681 72.9203 66.8865 72.5486C66.2538 72.1532 65.546 71.7471 64.7417 71.3197L63.058 70.4114C62.579 70.1476 62.1234 69.8438 61.6961 69.5031C61.321 69.2109 61.0076 68.8477 60.7738 68.4344C60.5474 68.0028 60.4331 67.5215 60.4413 67.0345C60.4367 66.7548 60.4618 66.4754 60.5164 66.201C60.584 65.8842 60.6959 65.5785 60.8488 65.2927C61.0284 64.9656 61.2728 64.6783 61.5674 64.4485C61.9364 64.1637 62.3596 63.9565 62.8114 63.8393C63.4293 63.6686 64.0683 63.5859 64.7095 63.5936C65.4299 63.5928 66.1484 63.6644 66.8544 63.8073C67.5913 63.955 68.3103 64.1807 68.9992 64.4805L69.2673 62.6638C68.5162 62.4077 67.745 62.2147 66.9616 62.0868C66.2519 61.9784 65.5348 61.9248 64.8168 61.9265C63.931 61.9117 63.0472 62.0159 62.1894 62.2364C61.5365 62.4033 60.919 62.6856 60.3663 63.0699C59.4912 63.6837 58.873 64.5964 58.6289 65.6346C58.5099 66.0917 58.4522 66.5624 58.4574 67.0345C58.4388 67.771 58.5892 68.502 58.897 69.1718C59.1753 69.7484 59.5611 70.267 60.0338 70.6999C60.5009 71.1304 61.0153 71.5068 61.5674 71.8219C62.1143 72.1425 62.6398 72.4418 63.1974 72.7089L64.9133 73.6386C65.4466 73.9466 65.9493 74.3044 66.4147 74.7072C66.8587 75.0676 67.2237 75.515 67.4871 76.0216C67.7682 76.5625 67.9084 77.1652 67.8946 77.7742C67.9091 78.228 67.8201 78.6792 67.6344 79.0938C67.4486 79.5084 67.1709 79.8757 66.8222 80.1679C66.4818 80.4487 66.1026 80.6791 65.6962 80.8518C65.2851 81.0233 64.8575 81.1522 64.42 81.2365C64.0033 81.3199 63.5795 81.3628 63.1545 81.3648C62.6577 81.3594 62.1624 81.3094 61.6746 81.2152C61.1338 81.1138 60.6001 80.9781 60.0767 80.8091C59.5552 80.6467 59.0462 80.4467 58.5539 80.2107L58.3501 82.1235L58.2536 82.0487ZM71.2191 62.1723V63.8821H77.4069V82.7647H79.348V63.8821H85.5358V62.215L71.2191 62.1723ZM92.528 62.1723H95.0589L103.252 82.7219H101.107L98.8338 77.0582H88.6351L86.3723 82.7219H84.2275L92.4207 62.1723H92.528ZM93.8256 64.0744H93.7613L93.0427 66.0193L89.3 75.3805H98.2011L94.5012 66.0193L93.8256 64.0744ZM106.695 62.1723V82.7219H108.636V66.6498L108.518 64.2668H108.603L109.676 66.4682L119.574 82.7647H122.084V62.215H120.132V78.3299L120.196 80.7129H120.132L119.22 78.8321L109.129 62.215L106.695 62.1723ZM125.494 62.1723V63.8821H131.65V82.7647H133.591V63.8821H139.779V62.215L125.494 62.1723ZM143.2 62.1723V82.7219H145.151V62.215L143.2 62.1723ZM151.039 62.1723V82.7219H152.98V66.6498L152.862 64.2668H152.959L154.031 66.4682L163.94 82.7647H166.439V62.215H164.498V78.3299L164.551 80.7129H164.498L163.586 78.8321L153.538 62.215L151.039 62.1723ZM193.389 80.3389C192.851 80.5516 192.299 80.7266 191.737 80.8625C191.148 81.0117 190.55 81.1224 189.946 81.1938C189.327 81.2702 188.704 81.3094 188.08 81.3113C187.005 81.3103 185.94 81.1111 184.938 80.7236C183.959 80.3326 183.072 79.7431 182.334 78.9926C181.595 78.242 181.021 77.3468 180.648 76.3636C180.214 75.2314 179.995 74.028 180.005 72.8158C179.996 71.589 180.188 70.369 180.573 69.2038C180.925 68.1369 181.479 67.1467 182.203 66.2865C182.915 65.4521 183.806 64.7875 184.809 64.3416C185.906 63.8563 187.095 63.6121 188.295 63.6256H189.281C189.84 63.6699 190.395 63.7484 190.944 63.8607C191.675 64.005 192.393 64.2124 193.088 64.4805L193.26 62.7173C192.78 62.5336 192.29 62.3801 191.791 62.2578C191.278 62.1422 190.759 62.0601 190.236 62.012C189.666 61.9499 189.093 61.9214 188.52 61.9265C187.166 61.9039 185.818 62.1061 184.531 62.5249C183.441 62.8795 182.429 63.438 181.549 64.1706C180.729 64.8461 180.039 65.6645 179.512 66.5857C178.981 67.5076 178.588 68.501 178.343 69.5351C178.095 70.5859 177.969 71.6616 177.967 72.741C177.965 73.7719 178.095 74.7989 178.353 75.7972C178.618 76.7742 179.019 77.7094 179.544 78.5757C180.087 79.4421 180.776 80.2085 181.581 80.8411C182.452 81.5171 183.436 82.0344 184.488 82.3693C185.726 82.7546 187.019 82.9421 188.316 82.925C188.997 82.9259 189.677 82.8866 190.354 82.8074C190.976 82.7219 191.555 82.6257 192.08 82.5082C192.606 82.3906 193.067 82.2624 193.474 82.1342V80.2855L193.389 80.3389ZM197.217 62.1723V82.7219H199.158V72.912H209.882V82.7219H211.834V62.215H209.829V71.2876H199.105V62.215L197.217 62.1723ZM223.406 62.1723L215.223 82.7219H217.314L219.577 77.0582H229.776L232.049 82.7219H234.14L225.947 62.1723H223.406ZM224.703 64.0744L225.39 66.0193L229.132 75.3805H220.231L223.877 66.0193L224.553 64.0744H224.703ZM232.21 62.1723H234.473L240.221 71.277L240.929 72.4738L241.84 71.0632L247.589 62.1723H249.969L241.873 74.1515V82.7005H239.921V74.1515L232.21 62.1723ZM253.219 62.1723V82.7219H255.16V72.4311L255.664 72.9867L265.53 82.8181H268.275L257.122 71.9288L267.139 62.215H264.629L255.825 70.9671L255.117 71.6937V62.215L253.219 62.1723ZM271.836 62.1723V82.7219H273.788V62.215L271.836 62.1723ZM279.675 62.1723V82.7219H281.616V66.6498L281.498 64.2668H281.595L282.667 66.4682L292.512 82.7647H295.011V62.215H293.048V78.3299L293.102 80.7129H293.048L292.137 78.8321L282.088 62.215L279.675 62.1723Z" fill="#1A1A18"/>
<path fill-rule="evenodd" clip-rule="evenodd" d="M135.993 39.0582L133.688 41.3557H161.356L159.05 39.0582L156.745 36.7607H147.522L110.631 0L147.522 27.5705L184.413 0L147.522 36.7607H138.299L135.993 39.0582Z" fill="#1A1A18"/>
</g>
<defs>
<clipPath id="clip0_20_1866">
<rect width="295" height="83" fill="white"/>
</clipPath>
</defs>
</svg>
