<svg width="92" height="29" viewBox="0 0 92 29" fill="none" xmlns="http://www.w3.org/2000/svg">
<g clip-path="url(#clip0_20_1926)">
<path d="M39.8821 18.286C39.8639 19.6653 39.6018 21.0302 39.108 22.317C38.6556 23.4958 37.9819 24.5759 37.1235 25.4983C36.2878 26.3907 35.2764 27.098 34.1538 27.5751C32.9751 28.0693 31.7051 28.3042 30.4288 28.2643C29.1955 28.2556 27.9783 27.982 26.8585 27.4619C25.7951 26.9594 24.8475 26.2392 24.0765 25.3473C23.265 24.3996 22.6366 23.3079 22.2234 22.1282C21.7554 20.8065 21.4958 19.4194 21.454 18.017C21.3774 16.5515 21.5764 15.0847 22.0404 13.6934C22.441 12.4832 23.0935 11.3728 23.9545 10.4365C24.7852 9.55307 25.7947 8.85933 26.9148 8.40218C28.0846 7.92467 29.3405 7.69799 30.6024 7.73665C31.8398 7.75825 33.0615 8.01947 34.2007 8.50603C35.326 8.98546 36.3403 9.69421 37.1798 10.5876C38.0646 11.5425 38.7505 12.6659 39.1971 13.8916C39.7029 15.2988 39.9354 16.7906 39.8821 18.286ZM35.1202 17.8565C35.1556 16.8034 35.0145 15.7519 34.7027 14.746C34.4325 13.8887 34.0079 13.0887 33.4501 12.3859C32.9459 11.7516 32.3165 11.2292 31.6016 10.8519C30.9113 10.4899 30.1468 10.2944 29.3685 10.2808C28.6021 10.2588 27.8414 10.4206 27.1494 10.7528C26.448 11.0846 25.828 11.5681 25.3338 12.1688C24.7928 12.837 24.3764 13.5982 24.1046 14.4156C23.7959 15.3633 23.6375 16.3541 23.6355 17.3515C23.6072 18.3708 23.7289 19.3888 23.9967 20.3723C24.2365 21.2595 24.6218 22.1002 25.1368 22.8598C25.6034 23.545 26.2095 24.1226 26.9148 24.5543C27.6013 24.9732 28.3873 25.1983 29.1902 25.2057C29.9331 25.2176 30.6686 25.056 31.3389 24.7337C32.0557 24.3984 32.6949 23.916 33.2155 23.3176C33.8021 22.6315 34.2613 21.8449 34.5713 20.9954C34.9332 19.9889 35.1189 18.9268 35.1202 17.8565Z" fill="white"/>
<path d="M63.2974 20.4571C63.4668 21.1625 63.6943 21.8525 63.9777 22.5198C64.2442 23.1625 64.5961 23.7659 65.0239 24.3134C65.413 24.8226 65.8897 25.2574 66.4314 25.5973C66.9916 25.9211 67.6292 26.0843 68.2751 26.0693C69.0895 26.0857 69.8954 25.8992 70.6208 25.5265C71.2612 25.1864 71.8225 24.7134 72.2676 24.1388C72.6862 23.5926 72.9895 22.9662 73.1589 22.2979C73.3222 21.6678 73.3542 21.0106 73.2528 20.3674C73.5862 20.488 73.8924 20.6741 74.1535 20.915C74.3836 21.1262 74.5743 21.3772 74.7165 21.656C74.8499 21.9177 74.9447 22.1976 74.998 22.4867C75.0479 22.756 75.073 23.0294 75.0731 23.3033C75.0686 23.9248 74.8808 24.531 74.5335 25.045C74.1336 25.6403 73.6162 26.1464 73.0135 26.5319C72.2968 26.9935 71.5157 27.3451 70.6959 27.575C69.744 27.8477 68.7581 27.9812 67.7684 27.9715C66.4553 27.9951 65.1542 27.7175 63.9636 27.1596C62.8729 26.6419 61.9051 25.8951 61.1253 24.9695C60.3305 24.0115 59.7253 22.9091 59.3425 21.7221C58.9237 20.4414 58.7145 19.1007 58.7232 17.7525C58.7101 16.4055 58.9194 15.0657 59.3425 13.7876C59.7222 12.6343 60.3465 11.5778 61.1722 10.6913C62.0023 9.82437 63.0203 9.16208 64.1466 8.75604C65.4509 8.29593 66.8365 8.11585 68.2141 8.22739C69.2441 8.29293 70.2455 8.59486 71.1416 9.11004C72.0361 9.62492 72.8307 10.2981 73.4873 11.0972C74.1667 11.9306 74.7099 12.8674 75.0965 13.8726C75.5001 14.9163 75.7514 16.0133 75.8425 17.1295L63.2974 20.4571ZM62.9315 17.4268V17.946C62.9303 18.1183 62.9429 18.2903 62.969 18.4605L71.348 15.114C71.1465 14.4222 70.868 13.7556 70.5176 13.1268C70.2134 12.5515 69.8383 12.017 69.4011 11.5362C69.0675 11.163 68.6703 10.8529 68.2282 10.6205C67.8785 10.4371 67.4917 10.337 67.0975 10.3278C66.6025 10.3184 66.1117 10.4216 65.6619 10.6299C65.2529 10.8287 64.8876 11.108 64.5876 11.4512C64.2711 11.8146 64.0102 12.2235 63.8135 12.6643C63.594 13.1419 63.4212 13.6398 63.2974 14.1511C63.1695 14.6874 63.0754 15.2313 63.016 15.7795C62.9601 16.3284 62.9319 16.8798 62.9315 17.4315V17.4268Z" fill="white"/>
<path d="M30.6636 17.1528C32.1845 17.1528 33.4175 15.9123 33.4175 14.3821C33.4175 12.8519 32.1845 11.6115 30.6636 11.6115C29.1426 11.6115 27.9097 12.8519 27.9097 14.3821C27.9097 15.9123 29.1426 17.1528 30.6636 17.1528Z" fill="#D61262"/>
<path d="M90.954 8.71324C90.6037 8.48853 90.2291 8.30483 89.8374 8.16571C89.4726 8.03392 89.0976 7.93288 88.7161 7.86363C88.3673 7.80075 88.0146 7.76133 87.6606 7.74563C86.8724 7.70813 86.0829 7.7812 85.3148 7.96275C84.8573 8.10362 84.4155 8.29186 83.9965 8.52444C83.548 8.78653 83.1141 9.07332 82.697 9.3835C82.1733 9.7704 81.7004 10.2224 81.2895 10.7287L81.2098 8.29316C78.6294 10.0113 74.5479 9.55814 74.5479 9.55814L78.6717 11.4462L77.5879 25.0117L74.9326 27.721L84.977 27.4756L81.7164 25.0542L81.3646 13.726C81.7049 13.2887 82.0816 12.8813 82.4905 12.5082C82.7874 12.2444 83.1008 12 83.4288 11.7766C83.7029 11.6012 83.9956 11.4571 84.3015 11.3471C85.0369 11.1987 85.7944 11.1987 86.5299 11.3471C86.8346 11.4155 87.1328 11.5103 87.4213 11.6302C87.7291 11.7598 88.0142 11.9383 88.2657 12.1589C88.544 12.4045 88.7858 12.689 88.9835 13.0038C89.2986 13.6056 89.5517 14.2382 89.7389 14.8918L92.0143 9.53926C91.6921 9.22555 91.3365 8.94853 90.954 8.71324Z" fill="white"/>
<path d="M58.9858 10.3751C54.0269 11.0548 48.6646 8.18967 48.6646 8.18967L50.893 10.663L45.4603 17.6251L45.3242 -0.0185547C42.7673 1.36443 38.4653 1.13315 38.4653 1.13315L42.7861 3.29495L41.4115 25.0073L38.4277 27.4476L48.1344 27.8582L45.54 25.2811L45.5025 21.538C46.0056 22.2789 46.549 22.9912 47.1304 23.6715C47.6032 24.2335 48.1043 24.7707 48.6317 25.2811C49.0546 25.6969 49.501 26.0878 49.9688 26.4517C50.3354 26.7408 50.7193 27.0072 51.1182 27.2493C51.5512 27.5268 52.0119 27.7578 52.4928 27.9385C52.796 28.0528 53.1198 28.1018 53.4431 28.0823C53.7663 28.0628 54.0819 27.9752 54.3694 27.8252C54.9077 27.5158 55.3848 27.1094 55.7768 26.6263C56.346 25.9337 56.8195 25.1668 57.1843 24.3465C57.6838 23.1995 58.0263 21.9895 58.2023 20.7498C57.7077 21.4351 57.131 22.0566 56.4853 22.6001C56.0537 22.9681 55.5815 23.2849 55.0778 23.5441C54.6624 23.7628 54.2079 23.8959 53.7407 23.9358C53.0854 24.0189 52.4198 23.9378 51.8031 23.6998C51.4525 23.5797 51.112 23.4313 50.7851 23.2562C50.3679 23.0272 49.9694 22.7652 49.5935 22.4726C49.1192 22.1094 48.6664 21.7186 48.2376 21.302C47.7054 20.7911 47.207 20.2455 46.7457 19.6689L54.9981 11.7722L58.9858 10.3751Z" fill="white"/>
<path d="M8.3553 15.9017C1.06474 11.9274 -2.40697 22.137 1.85759 26.0216C7.5296 31.327 17.3676 28.5279 19.1129 20.8295C19.8494 16.6475 19.9573 12.5505 19.9808 7.66048C19.8401 1.5763 19.6899 3.81834 24.236 0.0186768C14.276 2.29847 8.44444 1.17038 8.44444 1.17038C15.1439 5.13052 13.7036 3.15281 14.6044 10.9173C14.8718 15.274 15.7022 20.4519 13.2438 24.1572C11.4939 26.8854 7.53898 26.9892 5.04311 24.8321C4.3962 24.2828 3.9115 23.5654 3.64182 22.7581C3.37214 21.9508 3.32782 21.0845 3.51369 20.2537C3.71664 19.3111 4.16979 18.4416 4.8249 17.7376C5.48002 17.0336 6.3126 16.5215 7.23404 16.2557L8.3553 15.9017Z" fill="white"/>
</g>
<defs>
<clipPath id="clip0_20_1926">
<rect width="92" height="28.75" fill="white"/>
</clipPath>
</defs>
</svg>
